<?xml version="1.0" encoding="UTF-8"?><svg version="1.1" xmlns="http://www.w3.org/2000/svg" xmlns:xlink="http://www.w3.org/1999/xlink" viewBox="0 0 1600 1200" width="1600" height="1200" x="0px" y="0px">
              
              <!-- ITEM 0 -->
<g transform="translate(151.0 249.0) rotate(0.0 248.5 403.5) scale(1.6566666666666667 1.653688524590164)">
<g transform="translate(-0.0 -0.0)">
<g clip-path="url(#clipPathId-collage-item-0)">
		<defs>
			<clipPath id="clipPathId-collage-item-0">
				<rect x="0.0" y="0.0" width="300.0" height="488.0"/>
			</clipPath>
		</defs>

<path fill="#D62929" d="M151.412,58.222c-1.491,5.871,0.558,12.972-1.483,18.677c2.599-3.268,7.15-9.783,10.865-11.694  c-0.572-1.953-2.521-11.959-4.044-10.607C155.267,55.916,153.949,56.985,151.412,58.222z"/>
<path fill="#F2A19C" d="M105.285,80.688c-2.3,0.671-4.6,1.341-6.9,2.012c-0.198-0.393,0.123-0.939,0.563-0.959  c-1.043,2.222-2.085,4.444-3.128,6.667c-0.166,0.355-0.337,0.727-0.323,1.119c0.011,0.316,0.14,0.614,0.268,0.903  c1.11,2.515,2.22,5.03,3.33,7.544c0.51,1.155,1.037,2.336,1.923,3.236c0.863,0.877,2.414,1.381,3.265,0.493  c0.75-0.784,0.437-2.06,0.06-3.077c-1.04-2.807-2.203-5.57-3.487-8.275c0.832,1.365,1.664,2.729,2.496,4.094  c0.474,0.779,0.983,1.591,1.778,2.038c0.795,0.447,1.965,0.37,2.441-0.407c0.694-3.072-1.266-6.055-3.126-8.598  c1.313,0.565,1.947,2.017,2.689,3.238c0.742,1.222,2.055,2.431,3.425,2.021c0.73-2.147-0.375-4.478-1.715-6.307  C107.503,84.6,105.854,82.883,105.285,80.688z"/>
<linearGradient id="SVGID_1_-i0" gradientUnits="userSpaceOnUse" x1="115.1588" y1="388.6887" x2="174.5634" y2="388.6887" gradientTransform="matrix(1 0 0 -1 0 502)">
	<stop offset="0" style="stop-color:#FFBEB6"/>
	<stop offset="1" style="stop-color:#F2A19C"/>
</linearGradient>
<path fill="url(#SVGID_1_-i0)" d="M163.544,140.771c-1.266-0.055-2.589-0.126-3.682-0.765c-0.959-0.56-11.551-1.969-14.791-4.735  c-0.773-0.661-6.019-4.123-8.099-7.674c-2.871-4.903-13.899-34.843-21.814-36.083c0.689-1.627,6.081-4.387,6.77-6.014  c6.335,7.937,12.645,15.711,19.535,23.172c7.247,7.849,14.843,15.467,23.582,21.613c2.184,1.537,4.435,2.976,6.621,4.508  c1.01,0.708,2.044,1.478,2.585,2.586s0.405,2.644-0.621,3.327c-0.679,0.451-1.556,0.432-2.371,0.397  C168.688,140.994,166.116,140.882,163.544,140.771z"/>
<path fill="#D62929" d="M152.788,126.473c0.947,6.169,1.894,12.337,2.841,18.506c8.657-4.094,17.822-7.115,27.218-8.974  c-1.42-23.487-4.374-46.881-8.838-69.984c-0.434-2.249-0.92-4.579-2.289-6.417c-3.38-4.534-11.343-3.604-14.422,1.14  c-1.683,2.594-2.096,5.783-2.467,8.853c-0.884,7.309-1.766,14.616-2.65,21.925c-0.682,5.643-1.365,11.305-1.297,16.989  C150.956,114.537,151.873,120.517,152.788,126.473z"/>
<path fill="#151A4F" d="M174.834,163.597c3.473-3.166,0.094-14.913-2.675-18.71c-2.769-3.797-24.071-28.733-39.132-49.033  c-2.481,9.596-6.063,18.908-10.651,27.694c13.677,15.325,19.027,29.357,41.76,46.061  C167.733,172.253,171.537,166.603,174.834,163.597z"/>
<path fill="#F2A19C" d="M264.094,429.329c1.052,1.067,12.462,4.64,13.947,4.841c6.487,0.88,17.315-0.299,17.51-0.132  c0.189,0.161,4.821,25.024,3.775,35.699c-4.63,0.531-8.712,0.952-13.34,1.483c-1.789,0.205-3.651,0.403-5.351-0.191  C281.501,463.372,267.098,433.895,264.094,429.329z"/>
<path fill="#151A4F" d="M298.882,449.879c-16.851,2.255-23.712,0.907-40.521,3.447c-12.668-27.698-43.408-64.881-67.479-110.987  c-31.473-60.282-36.65-101.77-35.515-154.645c12.235,6.022,31.6,10.609,44.541,6.305c1.324,45.447,10.66,86.866,35.477,124.972  c6.579,10.103,13.966,19.863,18.258,31.129c3.934,10.325,5.154,21.65,10.195,31.482c4.947,9.648,13.194,17.132,19.626,25.861  C292.516,419.729,297.938,434.652,298.882,449.879z"/>
<path fill="#F2A19C" d="M154.673,61.063c-2.298-9.88-7.326-18.874-12.294-27.718c-0.478-0.852-0.958-1.704-1.436-2.556  c-0.157-0.281-0.32-0.579-0.313-0.902c0.012-0.515,0.44-0.909,0.828-1.248c3.039-2.656,2.434-7.761,4.273-11.352  c6.62,12.36,15.134,26.105,20.37,37.395C162.11,56.459,158.281,58.598,154.673,61.063z"/>
<linearGradient id="SVGID_2_-i0" gradientUnits="userSpaceOnUse" x1="108.5257" y1="475.5013" x2="147.3199" y2="475.5013" gradientTransform="matrix(1 0 0 -1 0 502)">
	<stop offset="0" style="stop-color:#FFBEB6"/>
	<stop offset="1" style="stop-color:#F2A19C"/>
</linearGradient>
<path fill="url(#SVGID_2_-i0)" d="M146.147,29.442c0.198-3.145,1.155-9.978-0.512-12.536c-2.627-4.031-7.417-8.553-13.883-11.594  c-7.917-3.724-13.432,1.669-18.85,8.535c-1.094,1.386-2.094,2.858-2.847,4.455c-2.932,6.222-1.55,14.212,3.304,19.089  c0.894,0.898,1.873,1.67,2.908,2.35c1.834,3.026,3.994,5.647,6.169,8.998c0.994,0.833,2.843-1.775,3.849-3.144  c0.504-0.687,0.979-1.256,1.439-1.772c2.181,0.381,4.393,0.642,6.556,0.868c4.748,0.494,9.081,5.309,12.207,1.704  C148.627,43.925,145.942,32.703,146.147,29.442z"/>
<linearGradient id="SVGID_3_-i0" gradientUnits="userSpaceOnUse" x1="-12.0862" y1="312.6728" x2="29.686" y2="312.6728" gradientTransform="matrix(0.9707 -0.2404 -0.2404 -0.9707 183.5036 328.1518)">
	<stop offset="0" style="stop-color:#23286B"/>
	<stop offset="1" style="stop-color:#151A4F"/>
</linearGradient>
<path fill="url(#SVGID_3_-i0)" d="M103.561,13.359c-2.971,7.869-2.592,17.509-1.952,19.829c2.724,9.873,2.331,10.525,0.203,15.381  c9.685-2.396,9.43-13.722,13.875-22.107c4.445-8.384,9.975-16.81,18.475-21.038c-5.6-3.051-10.308-6.171-16.827-5.265  C111.109,1.025,105.78,7.481,103.561,13.359z"/>
<g>
	<path fill="#23286B" d="M106.47,52.981c-0.15,0-0.3-0.067-0.399-0.196c-0.167-0.221-0.125-0.534,0.094-0.703   c5.712-4.361,7.715-11.714,9.652-18.824c0.715-2.627,1.455-5.343,2.373-7.882c2.85-7.887,8.045-15.096,14.626-20.296   c0.219-0.171,0.534-0.135,0.704,0.082c0.172,0.216,0.135,0.532-0.082,0.704c-6.437,5.088-11.517,12.138-14.305,19.851   c-0.904,2.501-1.638,5.197-2.349,7.805c-1.981,7.272-4.03,14.791-10.01,19.357C106.684,52.948,106.577,52.981,106.47,52.981z"/>
</g>
<path fill="#23286B" d="M137.792,30.614c0.818-1.179,1.656-2.552,1.349-3.954c-0.219-0.997-1.76-3.029-2.349-3.863  c-1.503-2.13-2.538-3.324-6.18-6.937c6.371,2.76,10.206,6.626,15.5,11.117c2.395,9.288,5.04,25.182,1.859,25.757  c-5.928,1.017-9.533-7.97-15.548-7.96C131.454,39.672,134.831,34.884,137.792,30.614z"/>
<path fill="#F2A19C" d="M135.403,44.919c-0.198-0.46-0.109-0.987-0.001-1.476c0.569-2.56,1.593-5.018,3.011-7.225  c1.545,1.08,1.495,1.229,3.228,1.974c-0.951,4.941-1.505,7.007-1.796,10.471c-1.198-0.938-2.395-1.876-3.593-2.814  C135.918,45.586,135.571,45.309,135.403,44.919z"/>
<path fill="#FFBEB6" d="M64.008,105.798c-0.975-0.686-2.822,0.733-2.663,1.912c0.159,1.181,0.987,2.145,1.779,3.035  c5.883,6.611,11.768,13.222,17.651,19.833c0.569,0.638,1.149,1.288,1.89,1.717c0.861,0.499,1.874,0.663,2.865,0.751  c6.4,0.568,13.788-1.359,18.621,2.872c1.453,1.272,2.458,2.967,3.438,4.632c5.076,8.622,10.152,17.242,15.228,25.864  c1.823-4.21,3.176-8.622,4.028-13.129c0.395-2.094,0.676-4.298,0.016-6.323c-0.496-1.524-1.489-2.83-2.483-4.088  c-3.572-4.519-7.395-8.84-11.446-12.936c-1.097-1.11-2.24-2.223-3.65-2.893c-1.81-0.861-3.886-0.912-5.891-0.946  c-5.929-0.103-11.859-0.206-17.788-0.31c-0.976-0.017-1.975-0.038-2.885-0.388c-1.226-0.47-2.912-3.316-4.917-5.821  C73.21,113.846,70.778,110.559,64.008,105.798z"/>
<linearGradient id="SVGID_4_-i0" gradientUnits="userSpaceOnUse" x1="50.9655" y1="391.62" x2="117.2308" y2="391.62" gradientTransform="matrix(1.0203 -0.0451 0.0451 -1.1001 -20.1641 546.7431)">
	<stop offset="0" style="stop-color:#EEEEEE"/>
	<stop offset="0.5538" style="stop-color:#D6D7D8"/>
</linearGradient>
<polygon fill="url(#SVGID_4_-i0)" points="104.447,130.495 49.815,105.883 64.478,93.661 116.847,117.022 "/>
<polygon opacity="0.25" fill="#808080" enable-background="new    " points="96.213,123.07 56.515,104.679 65.706,97.543   103.777,114.851 "/>
<linearGradient id="SVGID_5_-i0" gradientUnits="userSpaceOnUse" x1="217.7934" y1="33.7418" x2="300" y2="33.7418" gradientTransform="matrix(1 0 0 -1 0 502)">
	<stop offset="0" style="stop-color:#E94A47"/>
	<stop offset="1" style="stop-color:#D62929"/>
</linearGradient>
<path fill="url(#SVGID_5_-i0)" d="M218.645,481.313c-4.84-2.096,11.924-17.296,25.494-20.962c7.499-2.027,10.305-4.479,18.072-4.677  c8.789-0.223,28.023-0.489,36.812-0.712c0.241,9.039,1.751,26.35,0.46,26.189C290.502,482.041,219.775,481.152,218.645,481.313z"/>
<path fill="#F2A19C" d="M81.937,428.308c0.391,1.446,0.508,7.942,1.703,8.848c5.214,3.956,0.271,6.295,5.485,10.251  c0.204,0.154,0.417,0.323,0.504,0.562c0.084,0.233,0.941,0.881,0.82,1.098c-5.86,10.522-12.15,19.333-15.417,28.075  c-4.292-1.813-8.583-3.627-12.875-5.44c-1.659-0.701-10.025-4.605-11.211-5.959C55.471,459.505,82.305,433.76,81.937,428.308z"/>
<linearGradient id="SVGID_6_-i0" gradientUnits="userSpaceOnUse" x1="83.3287" y1="453.5665" x2="165.5229" y2="453.5665" gradientTransform="matrix(0.8706 0.492 0.492 -0.8706 -289.6986 790.4405)">
	<stop offset="0" style="stop-color:#E94A47"/>
	<stop offset="1" style="stop-color:#D62929"/>
</linearGradient>
<path fill="url(#SVGID_6_-i0)" d="M0.31,448.367c-3.182-4.205,18.896-9.195,32.516-5.715c7.526,1.923,11.177,1.168,18.035,4.814  c7.762,4.127,24.638,13.353,32.399,17.48c-4.24,7.987-11.448,23.801-12.492,23.027C62.51,484.329,1.372,448.782,0.31,448.367z"/>
<path fill="#23286B" d="M125.38,394.85c-3.884,5.772-4.595,13.352-5.88,20.429c-3.259,17.945-14.872,32.301-33.928,46.333  c-13.63-10.684-20.47-15.375-34.1-26.06c39.556-42.093,68.538-100.859,85.642-158.733c8.114-27.454,21.639-54.473,19.892-83.529  c15.036,1.706,28.689,4.776,42.903-0.961c6.687,47.442-15.904,101.59-44.563,144.689c-2.486,3.74-5.1,7.48-6.541,11.852  c-1.463,4.439-1.629,9.263-2.491,13.895c-1.608,8.634-5.736,16.658-11.604,22.557C131.569,388.478,127.918,391.08,125.38,394.85z"/>
<linearGradient id="SVGID_7_-i0" gradientUnits="userSpaceOnUse" x1="137.0582" y1="366.0785" x2="202.0576" y2="366.0785" gradientTransform="matrix(1 0 0 -1 0 502)">
	<stop offset="0" style="stop-color:#23286B"/>
	<stop offset="1" style="stop-color:#151A4F"/>
</linearGradient>
<path fill="url(#SVGID_7_-i0)" d="M151.564,97.956c6.221-13.943,12.443-27.887,18.665-41.83c20.228,15.438,28.724,43.143,28.082,68.571  c-0.758,30.043-0.251,57.697,3.747,80.725c-17.263-0.035-44.94,8.29-64.999,10.295c3.285-25.357,15.976-65.227,11.338-90.373  c-0.808-4.38-1.739-8.812-1.348-13.249C147.484,107.142,149.538,102.496,151.564,97.956z"/>
<path fill="#23286B" d="M145.814,155.497c6.211-25.974,12.506-52.436,18.717-78.409c1.048-4.384,2.801-9.522,7.171-10.638  c4.195-1.071,8.227,2.383,10.44,6.104c5.491,9.235,4.954,20.754,3.594,31.412c-4.213,33.028-14.748,65.239-30.867,94.378  c-0.514,0.929-1.09,1.909-2.049,2.366c-1.855,0.885-3.922-0.608-5.419-2.017c-13.984-13.144-28.26-28.413-47.27-31.094  c9.046-8.324,16.538-18.328,21.982-29.347c4.434,5.53,4.434,5.53,9.824,11.59c2.942,3.307,7.327,8.37,10.51,11.446  c3.183,3.075,2.625,7.123,4.447,13.466c3.503-2.289-3.234-15.889-2.156-15.889c-0.134-1.751,6.396,5.984,8.431,7.963  C153.898,165.192,149.772,158.407,145.814,155.497z"/>
<path fill="#FFBEB6" d="M108.89,136.619c1.446-1.474,9.507-0.598,8.274-2.255c-1.37-1.841-6.84-8.068-9.027-8.77  c-4.056-1.302-11.01-4.275-14.739-6.333c-3.729-2.059-10.334-4.942-12.158-3.113c-1.201,1.206,0.464,3.409,1.874,4.362  c1.409,0.953,10.504,4.997,11.984,5.835C102.622,130.605,102.526,130.947,108.89,136.619z"/>
<g>
	<path fill="#78A9EF" d="M150.198,131.105c-0.005,0-0.01,0-0.015,0c-0.277-0.008-0.495-0.239-0.487-0.515   c0.336-11.691,4.213-23.366,10.93-32.947l-4.705-2.335l14.283-22.377c2.068-3.238,4.41-6.91,4.868-10.961   c0.414-3.669-1.213-8.247-5.044-9.502c-0.264-0.086-0.407-0.37-0.321-0.632c0.086-0.263,0.374-0.407,0.633-0.32   c4.336,1.42,6.188,6.504,5.73,10.566c-0.483,4.282-2.894,8.056-5.019,11.387l-13.684,21.436l4.758,2.361l-0.343,0.479   c-6.811,9.509-10.748,21.183-11.084,32.872C150.691,130.889,150.468,131.105,150.198,131.105z"/>
</g>
<linearGradient id="SVGID_8_-i0" gradientUnits="userSpaceOnUse" x1="75.0512" y1="411.2593" x2="100.3009" y2="411.2593" gradientTransform="matrix(1 0 0 -1 0 502)">
	<stop offset="0" style="stop-color:#FFBEB6"/>
	<stop offset="1" style="stop-color:#F2A19C"/>
</linearGradient>
<path fill="url(#SVGID_8_-i0)" d="M76.015,103.643c0.567,0.215,1.202,0.045,1.777-0.146c6.387-2.127,12.411-6.356,15.584-12.288  c0.895-1.673,5.478-7.442,6.44-8.964s0.474-4.145-1.289-4.507c-5.938,7.937-12.112,16.088-20.68,21.076  c-0.941,0.547-1.952,1.099-2.497,2.04C74.803,101.795,74.998,103.256,76.015,103.643z"/>
<linearGradient id="SVGID_9_-i0" gradientUnits="userSpaceOnUse" x1="118.1229" y1="416.5386" x2="92.4703" y2="417.5495" gradientTransform="matrix(1 0 0 -1 0 502)">
	<stop offset="0" style="stop-color:#FFBEB6"/>
	<stop offset="1" style="stop-color:#F2A19C"/>
</linearGradient>
<path fill="url(#SVGID_9_-i0)" d="M122.23,86.917c-0.058,3.009-2.557,4.849-7.571,5.35c-1.137,0.113-4.955-0.549-5.767-1.754  c-2.52-3.74-8.426-3.749-11.534-7.016c-1.376-1.446-0.783-2.868,0.342-4.689c0.196-0.511,1.215-1.202,1.736-1.034  c4.338,1.396,8.675,2.791,13.012,4.188c2.837,0.913,5.678,1.827,8.44,2.946c0.398,0.161,0.815,0.343,1.065,0.693  C122.217,85.973,122.238,86.461,122.23,86.917z"/>
<path fill="#FFBEB6" d="M87.945,89.429c-0.815,0.416-1.695,1.118-1.645,2.081c0.033,0.64,0.486,1.17,0.983,1.532  c1.729,1.259,4.008,1.081,6.09,0.856c5.522-0.599,11.046-1.2,16.568-1.799c2.575-0.28,5.222-0.582,7.514-1.866  c-0.208-1.07-0.415-2.14-0.623-3.21c-0.046-0.238-0.101-0.492-0.271-0.653c-0.227-0.215-0.57-0.189-0.871-0.149  c-4.538,0.604-9.08,1.294-13.652,1.395C97.265,87.721,92.252,87.234,87.945,89.429z"/>
<path fill="#E94A47" d="M151.709,58.021c1.395,5.681,4.415,12.809,4.069,19.046c5.117-8.096,7.036-15.317,15.234-20.272  c-3.11-3.067-5.595-6.764-7.26-10.802c-2.416,2.779-4.831,5.559-7.247,8.339C155.161,55.877,153.693,57.504,151.709,58.021z"/>
<path fill="#FFBEB6" d="M55.254,121.477c10.2,4.37,21.756,5.487,32.594,8.439c1.347,0.367,2.77,0.767,4.14,0.473  c1.37-0.293,2.564-1.594,2.038-2.744c-2.525-0.706-5.051-1.41-7.576-2.116c-7.696-2.149-15.396-4.3-23.215-6.074  c-1.507-0.342-3.07-0.673-4.607-0.452C57.093,119.224,55.576,120.138,55.254,121.477z"/>
<path id="texture_5_-i0" fill="#FFFFFF" d="M186.015,217.372c-0.204,0.066-0.328,0.241-0.262,0.444l0,0  c0.066,0.203,0.241,0.328,0.444,0.262l0,0c0.204-0.066,0.328-0.241,0.262-0.444l0,0C186.395,217.43,186.219,217.306,186.015,217.372  L186.015,217.372z M153.618,232.776c-0.174-0.123-0.379-0.058-0.502,0.117c-0.123,0.174-0.058,0.379,0.117,0.502l0,0  c0.175,0.123,0.379,0.058,0.502-0.117C153.954,233.117,153.794,232.899,153.618,232.776L153.618,232.776L153.618,232.776z   M161.681,237.104c-0.175-0.123-0.379-0.058-0.502,0.117c-0.123,0.174-0.058,0.379,0.117,0.502l0,0  c0.175,0.123,0.379,0.058,0.502-0.117l0,0C161.907,237.525,161.855,237.227,161.681,237.104L161.681,237.104z M169.031,220.692  c-0.123,0.174-0.152,0.364-0.086,0.568c0.175,0.123,0.364,0.152,0.569,0.086c0.123-0.174,0.152-0.364,0.072-0.473  C169.44,220.561,169.25,220.532,169.031,220.692z M174.817,227.87c-0.123,0.174-0.152,0.364-0.086,0.568  c0.174,0.123,0.364,0.152,0.569,0.086c0.123-0.174,0.152-0.364,0.072-0.473C175.226,227.739,174.942,227.695,174.817,227.87  L174.817,227.87z M152.265,251.167c-0.19-0.029-0.408,0.131-0.436,0.321c-0.029,0.189,0.131,0.408,0.321,0.436l0,0  c0.19,0.029,0.408-0.131,0.436-0.321l0,0C152.615,251.413,152.455,251.195,152.265,251.167z M161.416,252.174  c-0.19-0.029-0.408,0.131-0.436,0.321c-0.028,0.189,0.131,0.408,0.321,0.436c0.19,0.028,0.408-0.131,0.436-0.321l0,0  C161.766,252.421,161.606,252.202,161.416,252.174L161.416,252.174L161.416,252.174z M176.156,215.289  c-0.109,0.08-0.248,0.35-0.072,0.473c0.08,0.109,0.35,0.248,0.473,0.072c0.109-0.08,0.248-0.35,0.072-0.473l0,0  C176.565,215.157,176.375,215.128,176.156,215.289L176.156,215.289z M180.74,222.089c-0.109,0.08-0.247,0.35-0.072,0.473  c0.08,0.109,0.256,0.233,0.473,0.072c0.109-0.08,0.233-0.256,0.072-0.473l0,0C181.039,222.038,180.849,222.009,180.74,222.089  L180.74,222.089L180.74,222.089z M157.188,243.684c-0.19-0.029-0.393,0.037-0.422,0.227c-0.029,0.189,0.051,0.299,0.227,0.422l0,0  c0.19,0.029,0.393-0.037,0.422-0.227l0,0C157.442,243.916,157.377,243.713,157.188,243.684L157.188,243.684z M165.181,245.289  c-0.19-0.029-0.393,0.037-0.422,0.227c-0.029,0.189,0.051,0.299,0.227,0.422l0,0c0.19,0.029,0.393-0.037,0.422-0.227l0,0  C165.436,245.522,165.371,245.318,165.181,245.289L165.181,245.289z M167.812,229.321c-0.175-0.123-0.379-0.058-0.502,0.117  c-0.123,0.174-0.058,0.379,0.117,0.502c0.175,0.123,0.379,0.058,0.502-0.117C168.053,229.648,167.986,229.444,167.812,229.321  L167.812,229.321z M168.401,211.491c-0.174-0.123-0.379-0.058-0.502,0.117c-0.123,0.174-0.058,0.379,0.117,0.502  c0.175,0.123,0.379,0.058,0.502-0.117C168.641,211.819,168.575,211.615,168.401,211.491L168.401,211.491z M176.224,216.752  c-0.174-0.123-0.379-0.058-0.502,0.117c-0.123,0.174-0.058,0.379,0.117,0.502c0.175,0.123,0.379,0.058,0.502-0.117  C176.464,217.079,176.399,216.875,176.224,216.752L176.224,216.752z M184.157,221.932c-0.175-0.123-0.379-0.058-0.502,0.117  c-0.123,0.174-0.058,0.379,0.117,0.502c0.174,0.123,0.379,0.058,0.502-0.117C184.302,222.244,184.237,222.041,184.157,221.932z   M160.43,250.377c-0.204,0.066-0.328,0.241-0.262,0.444s0.241,0.328,0.444,0.262s0.328-0.241,0.262-0.444  C160.904,250.449,160.635,250.311,160.43,250.377L160.43,250.377z M196.067,216.289c-0.16-0.219-0.35-0.248-0.569-0.086   M165.038,230.351c-0.19-0.029-0.408,0.131-0.436,0.321c-0.029,0.189,0.131,0.408,0.321,0.436c0.19,0.029,0.408-0.131,0.436-0.321  l0,0C165.388,230.598,165.227,230.379,165.038,230.351L165.038,230.351L165.038,230.351z M164.665,223.901  c-0.19-0.029-0.408,0.131-0.436,0.321c-0.029,0.189,0.131,0.408,0.321,0.436c0.19,0.029,0.393-0.037,0.436-0.321  C165.015,224.148,164.854,223.93,164.665,223.901L164.665,223.901z M173.832,226.073c-0.19-0.029-0.408,0.131-0.436,0.321  c-0.029,0.189,0.037,0.393,0.321,0.436c0.19,0.029,0.408-0.131,0.532-0.307C174.182,226.32,174.021,226.102,173.832,226.073  L173.832,226.073z M185.195,213.857c-0.174-0.123-0.379-0.058-0.502,0.117l0,0c-0.123,0.174-0.058,0.379,0.102,0.596  c0.175,0.123,0.379,0.058,0.597-0.102C185.436,214.184,185.37,213.981,185.195,213.857L185.195,213.857z M186.285,217.511  c-0.19-0.029-0.299,0.051-0.408,0.131c-0.029,0.189,0.051,0.299,0.131,0.408c0.19,0.029,0.299-0.051,0.408-0.131l0,0  C186.446,217.728,186.379,217.525,186.285,217.511L186.285,217.511L186.285,217.511z"/>

</g>
</g>
</g>

<!-- ITEM 1 -->
<g transform="translate(565.0 153.0) rotate(0.0 223.5 447.5) scale(2.235 2.2375)">
<g transform="translate(-0.0 -0.0)">
<g clip-path="url(#clipPathId-collage-item-1)">
		<defs>
			<clipPath id="clipPathId-collage-item-1">
				<rect x="0.0" y="0.0" width="200.0" height="400.0"/>
			</clipPath>
		</defs>

<path fill="#C1D7FD" d="M170.483,400H29.06c-14.49,0-26.237-11.621-26.237-25.953V25.954c0-14.334,11.746-25.953,26.237-25.953  h141.422c14.49,0,26.237,11.62,26.237,25.953v348.094C196.72,388.38,184.972,400,170.483,400z"/>
<ellipse fill="#A1C3FC" cx="71.914" cy="25.119" rx="4.591" ry="4.541"/>
<path fill="#A1C3FC" d="M170.483,0h-27.148c-1.392,0.857-2.761,1.736-4.101,2.624c-35.569,23.556-66.161,56.908-78.064,97.58  c-4.799,16.394-6.46,33.511-10.109,50.193c-8.351,38.196-26.96,73.455-48.236,106.401v117.248c0,14.334,11.746,25.953,26.237,25.953  h141.422c14.49,0,26.237-11.621,26.237-25.953V25.954C196.72,11.62,184.972,0,170.483,0z"/>
<linearGradient id="SVGID_1_-i1" gradientUnits="userSpaceOnUse" x1="2826.748" y1="-3296.2417" x2="3018.2227" y2="-3296.2417" gradientTransform="matrix(0.1702 0 0 -0.1702 -396.2191 -184.383)">
	<stop offset="0" style="stop-color:#A1C3FC"/>
	<stop offset="1" style="stop-color:#8AB8FD"/>
</linearGradient>
<ellipse fill="url(#SVGID_1_-i1)" cx="101.188" cy="376.637" rx="16.295" ry="16.118"/>
<polygon fill="#A1C3FC" points="84.382,23.78 117.041,19.749 117.742,25.305 85.082,29.335 "/>
<rect x="10.503" y="45.282" fill="#FFFFFF" width="178.538" height="309.834"/>
<ellipse fill="#C1D7FD" cx="99.268" cy="374.738" rx="12.454" ry="12.32"/>
<g>
	<path fill="#428DFC" d="M113.05,24.848H86.213c-0.531,0-0.96-0.425-0.96-0.949c0-0.524,0.429-0.949,0.96-0.949h26.837   c0.531,0,0.96,0.425,0.96,0.949C114.01,24.423,113.58,24.848,113.05,24.848z"/>
</g>
<ellipse fill="#428DFC" cx="72.028" cy="24.567" rx="3.15" ry="3.116"/>
<rect x="0" y="46.176" fill="#D62929" width="3.225" height="13.757"/>
<rect x="0" y="76.483" fill="#D62929" width="3.225" height="24.725"/>
<rect x="196.775" y="76.483" fill="#D62929" width="3.225" height="24.725"/>
<rect x="0" y="108.783" fill="#D62929" width="3.225" height="24.725"/>
<polygon fill="#FFFFFF" points="68.426,18.107 72.874,22.86 68.069,27.261 63.621,22.508 "/>
<polygon fill="#A1C3FC" points="65.274,18.622 68.419,21.982 65.022,25.093 61.877,21.733 "/>

</g>
</g>
</g>

<!-- ITEM 2 -->
<g transform="translate(956.0 382.0) rotate(0.0 185.5 335.5) scale(2.124491782626124 2.1228265546303557)">
<g transform="translate(-0.0 -0.0)">
<g clip-path="url(#clipPathId-collage-item-2)">
		<defs>
			<clipPath id="clipPathId-collage-item-2">
				<rect x="0.0" y="0.0" width="174.63" height="316.088"/>
			</clipPath>
		</defs>

<path fill="#FFBEB6" d="M98.557,187.081c-4.977,2.673-8.646,1.174-13.779,1.957c-6.838,1.044-4.677,5.142-4.369,10.831  c0.509,9.395-1.046,18.968,0.215,27.903c4.079-2.482,6.017-5.983,7.58-10.317c1.819-5.044,2.739-6.101,7.38-8.841  c4.051-2.391,7.661-4.985,11.858-7.096c3.852-1.938,9.529-3.209,12.465-6.242c-2.212-4.441-2.37-9.069-3.245-13.716  C110.759,182.481,103.968,187.32,98.557,187.081z"/>
<path fill="#428DFC" d="M87.64,188.542c-5.439-0.793-16.314-1.834-16.785,0.122c0.057,7.286-0.353,18.666-0.315,26.765  c0.041,8.874,0.005,18.492,0.475,26.904c0.294,5.253,15.821-7.676,16.282-27.517c0.093-4.02,0.294-6.321,0.226-11.053  C87.451,198.802,87.285,190.355,87.64,188.542z"/>
<path fill="#F2A19C" d="M103.75,106.958c-1.67,1.337-7.38,5.519-8.081,5.006c-1.928-1.789-0.481-2.799,1.005-4.024  c-1.092,0.241-3.976,0.729-3.636-1.176c0.156-0.871,3.434-2.892,4.018-3.551c1.881-2.123,1.978-2.86,4.199-0.743  C102.328,103.493,103.907,105.891,103.75,106.958z"/>
<linearGradient id="SVGID_1_-i2" gradientUnits="userSpaceOnUse" x1="92.2597" y1="91.3199" x2="100.3207" y2="88.3563">
	<stop offset="0" style="stop-color:#FFBEB6"/>
	<stop offset="1" style="stop-color:#F8AFA9"/>
</linearGradient>
<path fill="url(#SVGID_1_-i2)" d="M54,80.958c4.043,1.987,7.745,4.29,12.263,5.769c5.393,1.764,10.981,2.932,16.424,4.538  c5.431,1.603,12.637,2.255,17.563,5.013c2.399,1.343,2.444,3.838,3.575,6.456c1.039,2.405,2.493,4.682,3.668,6.976  c0.714,1.395,2.79,3.94,2.706,5.499c-0.222,4.112-3.038-0.407-3.894-1.75c-1.223-1.921-2.549-3.722-3.617-5.75  c-0.963-1.828-1.91-5.074-3.689-6.206c-1.247-0.793-4.768-1.874-6.249-1.982c-2.273-0.165-17.669,3.345-19.75,2.188  c-2.111-1.174-8.542-0.799-11-0.75c-3.728,0.074-10.973-2.175-12.512-3.743c-0.885-0.901-1.598-2.268-2.488-3.251  c-2.011-2.221-3.1-4.678-3.812-7.575c-0.631-2.564-1.685-5.379-0.195-7.431c1.285-1.769,4.608-3.436,6.707-3.719  C50.484,76.786,52.64,80.289,54,80.958z"/>
<polygon fill="#A1C3FC" points="143.417,139.684 106.989,139.684 129.833,93.38 166.261,93.38 "/>
<polygon fill="#428DFC" points="141.781,136.053 113.25,133.208 130.849,97.011 161.042,97.011 "/>
<path fill="#FFBEB6" d="M118.317,286.118c2.653,4.988,1.137,8.65,1.9,13.787c1.015,6.842,5.122,4.698,10.813,4.414  c9.397-0.47,18.964,1.125,27.904-0.098c-2.465-4.09-5.957-6.042-10.285-7.623c-5.037-1.84-6.09-2.765-8.81-7.417  c-2.375-4.061-4.953-7.682-7.047-11.887c-1.922-3.86-3.169-9.542-6.19-12.491c-4.45,2.193-9.079,2.332-13.729,3.188  C113.768,273.897,118.578,280.709,118.317,286.118z"/>
<path fill="#151A4F" d="M64.236,115.349c-1.431,3.926-0.775,5.473-0.236,9.526c0.826,6.212,2.294,6.343,8.667,7.333  c13.378,2.079,28.633,5.478,42,8c10.448,1.971,27.123,5.599,31.725,17.053c4.152,10.336-7.002,22.917-14.174,29.366  c-9.572,8.608-20.568,15.268-29.807,24.25c-5.926,5.762-14.593,15.392-17.536,23.024c0.958-5.714-1.685-14.344-2.563-20.267  c-1.08-7.281-1.82-13.262,1.687-20.177c1.411-2.783,5.967-7.055,8.349-9.049c3.693-3.092-0.619-8.043,2.901-9.451  c11.25-4.5,7.585-3.404,13.063-7.052c-2.429,5.92-21.766,1.002-26.98-0.046c-9.187-1.847-18.46-2.076-27.574-3.997  c-4.886-1.03-10.456-1.575-13.677-6.051c-2.933-4.076-7.278-10.202-8.38-14.888c-2.82-11.986-1.471-23.197-1.022-35.267  c9.313,5.776,23.26,4.088,33.974,6.945C63.724,113.716,65.427,115.879,64.236,115.349z"/>
<linearGradient id="SVGID_2_-i2" gradientUnits="userSpaceOnUse" x1="68.2886" y1="170.8662" x2="106.3219" y2="257.9569">
	<stop offset="0" style="stop-color:#23286B"/>
	<stop offset="1" style="stop-color:#151A4F"/>
</linearGradient>
<path fill="url(#SVGID_2_-i2)" d="M23.427,101.562c-2.974,7.831-1.17,21.655,0.521,30.344c2.222,11.414,7.76,18.288,14.935,26.995  c12.435,15.09,35.628,32.821,37.913,53.508c1.113,10.074,1.816,18.758,7.431,27.878c5.339,8.673,13.839,11.717,14.606,22.587  c0.766,10.857,3,24.333,12.563,29.728c0,0,20.926,0.815,30.529-0.272c-4.892-9.059-9.79-20.896-13.595-28.511  c-4.699-9.405-8.795-18.995-12.102-28.828c-6.78-20.159-8.405-45.251-19.994-63.514c-4.52-7.124-10.692-13.241-16.557-19.183  c-2.999-3.038-5.878-5.955-8.231-9.33c-2.638-3.784-3.424-5.638-5.114-10.09c-3.634-9.576-6.071-21.519-3.27-31.217  c-13.216,0.033-26.513,0.405-39.511-0.605C24.039,100.107,22.894,102.483,23.427,101.562z"/>
<linearGradient id="SVGID_3_-i2" gradientUnits="userSpaceOnUse" x1="42.9873" y1="42.9808" x2="39.6159" y2="122.881">
	<stop offset="0" style="stop-color:#A1C3FC"/>
	<stop offset="1" style="stop-color:#89B3F4"/>
</linearGradient>
<path fill="url(#SVGID_3_-i2)" d="M40.519,29.316c-8.833,6.563-10.223,13.393-13.368,23.699c-5.719,18.737-10.327,41.52-22.25,57.366  c12.52,14.037,37,14.706,53.821,12.136C64.807,121.588,75,119.541,75,119.541s-8.239-16.033-9.081-21.258  c-1.748-10.857-1.754-20.128-0.551-30.885c1.035-9.265,2.097-18.402,3.709-27.174c1.481-8.056-1.245-14.937-11.827-16.017  C51.789,23.651,45.624,25.523,40.519,29.316z"/>
<path fill="#F2A19C" d="M71.406,15.531c-3.741,4.245-9.156,7.427-13.594,9.498C59.471,29.51,65.058,33.72,70,35.208  c3.134-4.433,6.631-3.379,10.063-7.543c-3.839-3.126-6.165-6.649-7.79-11.444C72.21,17.86,70.818,13.953,71.406,15.531z"/>
<linearGradient id="SVGID_4_-i2" gradientUnits="userSpaceOnUse" x1="118.6844" y1="305.6489" x2="174.6305" y2="305.6489">
	<stop offset="0" style="stop-color:#428DFC"/>
	<stop offset="1" style="stop-color:#1D72D8"/>
</linearGradient>
<path fill="url(#SVGID_4_-i2)" d="M119.731,297.041c-0.815,5.435-1.902,16.306,0.051,16.785c7.286-0.026,18.664,0.431,26.763,0.427  c8.874-0.004,18.492,0.073,26.905-0.362c5.254-0.272-7.61-15.853-27.449-16.397c-4.019-0.11-6.32-0.32-11.052-0.272  C129.99,297.273,121.543,297.404,119.731,297.041z"/>
<path fill="#8CB6F1" d="M141.887,143.691l-44.722,1.896v-6.533h46.637v2.64C143.802,142.764,142.958,143.646,141.887,143.691z"/>
<path fill="#78A9EF" d="M102.413,146.383l-23.455-5.508c-0.904-0.212-1.543-1.019-1.543-1.947v-3.375l24.998,4.296V146.383z"/>
<linearGradient id="SVGID_5_-i2" gradientUnits="userSpaceOnUse" x1="87.5885" y1="22.5805" x2="97.8085" y2="15.5947">
	<stop offset="0" style="stop-color:#FFBEB6"/>
	<stop offset="1" style="stop-color:#F8AFA9"/>
</linearGradient>
<path fill="url(#SVGID_5_-i2)" d="M79.758,9.736c4.968-6.762,12.227-8.273,20.663-3.998c6.625,3.358,6.94,15.184,1.769,22.94  c-2.717,4.075-9.372,14.542-22.298,10.988c-10.339-2.843-4.451-19.782-3.064-25.169C76.676,15.181,79.075,9.207,79.758,9.736z"/>
<path fill="#E94A47" d="M98.015,12.96c4.019-0.336,2.559,21.858,2.559,21.858l10.591-0.297c0,0,2.344-21.378-8.936-25.578  C100.395,10.462,99.484,11.047,98.015,12.96z"/>
<g>
	<path fill="#E94A47" d="M113.502,34.349c-0.017,0-0.033-0.001-0.05-0.002c-0.274-0.027-0.476-0.271-0.449-0.546   c0.735-7.545-4.023-20.417-10.085-23.751c-0.241-0.133-0.33-0.437-0.197-0.679c0.135-0.243,0.438-0.329,0.68-0.197   c6.532,3.593,11.368,16.818,10.599,24.724C113.974,34.155,113.756,34.349,113.502,34.349z"/>
</g>
<path fill="#FFBEB6" d="M86.75,98.458c0.701,0.129,1.651,2.767,2.556,3.75c1.317,1.429,2.89,2.041,4.694,2.493  c2.326,0.582,8.107,1.413,10.249,0.026c4.323-2.8-4.951-4.053-6.499-4.27c-2.595-0.363-8.498-4.098-10.329-2.141  C87.614,98.196,86.557,98.577,86.75,98.458z"/>
<polygon fill="#C3D9FD" points="109.298,134.938 77.267,135.558 99.25,139.458 143.802,139.053 "/>
<g>
	<linearGradient id="SVGID_6_-i2" gradientUnits="userSpaceOnUse" x1="102.0997" y1="139.7754" x2="79.1022" y2="107.2944">
		<stop offset="0" style="stop-color:#FFBEB6"/>
		<stop offset="1" style="stop-color:#F8AFA9"/>
	</linearGradient>
	<path fill="url(#SVGID_6_-i2)" d="M110.62,134.989c-2.811-0.849-4.835-3.334-8.049-4.555c-5.889-2.237-9.666-11.303-13.019-16.447   c-3.76-5.769-7.371-10.027-12-14.865c-3.768-3.938-8.045-10.436-12.85-13.028c0.035,0.268,0.069,0.613,0.109,0.856   c-4.185,0.693-6.606-2.844-8.113,2.589c-0.815,2.939,1.45,9.711,2.551,12.312c2.779,6.562,8.108,12.522,12.984,17.556   c5.185,5.352,12.706,7.538,17.564,12.533c4.292,4.413,1.594,10.944,5.84,15.447c1.076,0.676,3.088-0.576,4.394-0.086   c1.086,0.407,4.861-0.188,7.739-1.624c2.841,1.004,1.312,2.38,4.666,0.24c1.154-0.865-2.089-4.577-5.824-8.331   c-0.181-0.262-0.38-0.548-0.612-0.876c2.976,3.061,7.5,2.75,11.75,2C118.736,137.804,116.04,136.626,110.62,134.989z"/>
	<linearGradient id="SVGID_7_-i2" gradientUnits="userSpaceOnUse" x1="102.534" y1="139.468" x2="79.5365" y2="106.987">
		<stop offset="0" style="stop-color:#FFBEB6"/>
		<stop offset="1" style="stop-color:#F8AFA9"/>
	</linearGradient>
	<path fill="url(#SVGID_7_-i2)" d="M64.524,85.992c0.06,0.031,0.118,0.069,0.177,0.101C64.652,85.714,64.6,85.5,64.524,85.992z"/>
</g>
<path fill="#A1C3FC" d="M62.333,35.874c6.333-0.333,8.525,2.831,10.333,11.667c1.465,7.157,1.332,10.238,0.973,17.651  c-0.642,13.273,4.218,26.345,12.983,37.056c-4.781,6.084-25.009,7.698-32.29,7.959c-1.266-24.31,6.291-28.732-1-46  C47,49.208,50.957,36.473,62.333,35.874z"/>
<path fill="#E94A47" d="M105.099,10.258C100.251-4.285,77.619-1.253,71.166,6.38c-7.755,9.173-6.723,30.285-6.14,41.688  c3.037,0.729,23.591,0.323,23.591,0.323s-2.541-16.817,1.153-23.065c1.221-2.066,11.446-0.013,13.459-2.183  C106.592,19.519,104.182,10.487,105.099,10.258z"/>
<g>
	<path fill="#23286B" d="M98.083,37.456c-0.063,0-0.127-0.012-0.188-0.037c-2.546-1.036-2.869-1.677-3.595-3.741   c-0.092-0.261,0.045-0.546,0.306-0.638c0.264-0.093,0.547,0.046,0.638,0.306c0.65,1.85,0.786,2.234,3.028,3.147   c0.256,0.104,0.379,0.396,0.274,0.651C98.467,37.338,98.28,37.456,98.083,37.456z"/>
</g>
<path id="texture-2_14_-i2" fill="#FFFFFF" d="M33.843,147.485c-0.001-0.085-0.072-0.153-0.157-0.152  c-0.085,0.001-0.153,0.072-0.152,0.157c0.001,0.085,0.072,0.153,0.157,0.152l0,0C33.776,147.641,33.845,147.572,33.843,147.485  L33.843,147.485z M27.316,133.037c0.061-0.062,0.06-0.163-0.003-0.224l0,0c-0.055-0.058-0.147-0.059-0.204-0.004  c-0.005,0.004-0.01,0.01-0.014,0.015c-0.06,0.059-0.061,0.154-0.003,0.215C27.155,133.099,27.256,133.099,27.316,133.037  L27.316,133.037L27.316,133.037z M30.151,140.566c0.076-0.041,0.111-0.133,0.08-0.213c-0.037-0.081-0.132-0.117-0.213-0.08  c-0.081,0.037-0.117,0.132-0.08,0.213C29.98,140.563,30.07,140.597,30.151,140.566z M50.729,138.909  c0.153-0.059,0.23-0.23,0.173-0.384c-0.049-0.15-0.21-0.232-0.36-0.184c-0.005,0.002-0.01,0.003-0.015,0.005  c-0.153,0.059-0.23,0.23-0.173,0.384C50.408,138.882,50.576,138.963,50.729,138.909L50.729,138.909z M43.998,141.38  c0.154-0.061,0.229-0.233,0.167-0.386c-0.059-0.151-0.227-0.227-0.379-0.171c-0.153,0.054-0.233,0.221-0.179,0.374l0,0  C43.672,141.351,43.841,141.43,43.998,141.38z M37.253,143.849c0.152-0.055,0.231-0.221,0.176-0.373  c-0.001-0.003-0.003-0.006-0.004-0.009c-0.049-0.15-0.21-0.232-0.36-0.184c-0.005,0.002-0.01,0.003-0.015,0.005  c-0.153,0.062-0.232,0.232-0.183,0.39C36.929,143.828,37.099,143.905,37.253,143.849z M49.908,154.225  c0.002-0.163-0.129-0.296-0.292-0.297c-0.163-0.002-0.296,0.129-0.297,0.292c-0.001,0.159,0.125,0.291,0.284,0.297  C49.767,154.518,49.902,154.389,49.908,154.225L49.908,154.225z M42.737,153.93c0.001-0.162-0.129-0.296-0.292-0.297  c-0.163-0.002-0.296,0.129-0.297,0.292c-0.001,0.159,0.125,0.291,0.284,0.297C42.594,154.223,42.73,154.094,42.737,153.93  L42.737,153.93z M40.576,128.569c0.118-0.114,0.124-0.3,0.011-0.421c-0.107-0.119-0.291-0.127-0.409-0.02  c0,0-0.002,0.001-0.002,0.002c-0.122,0.099-0.14,0.279-0.042,0.4c0.005,0.006,0.01,0.011,0.015,0.018  C40.265,128.664,40.45,128.674,40.576,128.569z M35.291,133.431c0.117-0.115,0.126-0.301,0.021-0.426  c-0.114-0.118-0.301-0.124-0.421-0.012c-0.12,0.11-0.127,0.297-0.016,0.417c0.001,0.001,0.003,0.003,0.003,0.003  c0.108,0.12,0.291,0.128,0.409,0.022C35.289,133.432,35.29,133.431,35.291,133.431z M30.014,138.285  c0.118-0.103,0.131-0.283,0.027-0.4c-0.003-0.003-0.006-0.007-0.01-0.01c-0.106-0.123-0.292-0.137-0.415-0.031  c-0.004,0.003-0.008,0.007-0.011,0.01c-0.12,0.112-0.127,0.301-0.015,0.421c0.112,0.12,0.302,0.126,0.42,0.015  C30.012,138.287,30.013,138.286,30.014,138.285z M49.433,161.248c0.02-0.144-0.081-0.277-0.224-0.298  c-0.143-0.021-0.277,0.08-0.298,0.224c-0.021,0.144,0.08,0.277,0.224,0.298l0,0C49.277,161.49,49.41,161.391,49.433,161.248z   M42.499,135.343c0.115-0.095,0.137-0.261,0.049-0.382c-0.084-0.113-0.245-0.137-0.358-0.052c-0.003,0.003-0.006,0.005-0.009,0.007  c-0.118,0.085-0.144,0.251-0.058,0.368c0.001,0.001,0.002,0.002,0.003,0.004C42.217,135.4,42.379,135.425,42.499,135.343  L42.499,135.343z M37.398,139.199c0.114-0.089,0.134-0.253,0.047-0.367c-0.084-0.113-0.245-0.137-0.358-0.052  c-0.003,0.003-0.006,0.005-0.009,0.007c-0.118,0.085-0.144,0.251-0.059,0.368c0.001,0.001,0.002,0.002,0.003,0.004  C37.116,139.272,37.283,139.29,37.398,139.199L37.398,139.199z M32.286,143.076c0.118-0.085,0.144-0.251,0.059-0.368l-0.003-0.004  c-0.078-0.113-0.235-0.139-0.348-0.061c-0.007,0.004-0.014,0.01-0.02,0.016c-0.118,0.085-0.144,0.251-0.059,0.368  c0.001,0.001,0.002,0.002,0.003,0.004C32.009,143.14,32.17,143.16,32.286,143.076L32.286,143.076z M45.456,149.072  c0.14-0.042,0.221-0.186,0.182-0.328c-0.036-0.14-0.178-0.224-0.318-0.188c-0.141,0.039-0.227,0.181-0.198,0.324  C45.163,149.024,45.311,149.109,45.456,149.072L45.456,149.072z M39.253,150.686c0.137-0.031,0.224-0.167,0.193-0.303  c-0.001-0.005-0.003-0.01-0.003-0.015c-0.036-0.14-0.178-0.224-0.318-0.188c-0.141,0.039-0.227,0.181-0.198,0.324  C38.967,150.643,39.112,150.725,39.253,150.686L39.253,150.686z M30.968,129.285c0.073-0.118,0.036-0.272-0.081-0.345  c-0.005-0.003-0.009-0.006-0.014-0.008c-0.124-0.077-0.286-0.039-0.363,0.084c-0.001,0.003-0.003,0.006-0.005,0.008  c-0.068,0.129-0.024,0.287,0.102,0.362c0.123,0.073,0.283,0.032,0.356-0.091C30.965,129.292,30.966,129.288,30.968,129.285  L30.968,129.285z M27.731,134.818c0.074-0.127,0.033-0.29-0.093-0.368c-0.13-0.071-0.293-0.025-0.364,0.105  c-0.068,0.123-0.029,0.279,0.09,0.355c0.121,0.077,0.283,0.042,0.36-0.079C27.726,134.827,27.728,134.822,27.731,134.818  L27.731,134.818z M55.691,158.583c0.161-0.052,0.255-0.219,0.211-0.383c-0.044-0.163-0.211-0.26-0.373-0.217  c-0.162,0.049-0.256,0.219-0.211,0.383C55.362,158.529,55.528,158.626,55.691,158.583L55.691,158.583z M48.551,160.521  c0.163-0.043,0.26-0.211,0.217-0.373c-0.043-0.162-0.211-0.26-0.373-0.217c-0.163,0.043-0.26,0.211-0.217,0.373  C48.222,160.468,48.389,160.564,48.551,160.521L48.551,160.521z M36.821,133.813c0.081-0.151,0.03-0.339-0.117-0.428  c-0.15-0.08-0.338-0.022-0.417,0.129c-0.077,0.146-0.025,0.326,0.116,0.409C36.549,134.005,36.733,133.957,36.821,133.813  L36.821,133.813z M33.148,140.232c0.08-0.147,0.032-0.331-0.112-0.419c-0.147-0.085-0.334-0.035-0.419,0.112  c-0.085,0.147-0.035,0.334,0.112,0.419C32.876,140.425,33.062,140.375,33.148,140.232L33.148,140.232z M46.288,146.86  c0.127-0.109,0.15-0.298,0.054-0.435c-0.107-0.129-0.298-0.149-0.429-0.045c-0.134,0.098-0.162,0.287-0.063,0.421  c0,0,0.003,0.003,0.004,0.005C45.959,146.941,46.152,146.965,46.288,146.86L46.288,146.86L46.288,146.86z M40.432,151.389  c0.135-0.105,0.159-0.299,0.055-0.434l0-0.001c-0.101-0.13-0.29-0.153-0.419-0.05l0,0c-0.133,0.103-0.158,0.293-0.056,0.425  C40.11,151.462,40.299,151.488,40.432,151.389L40.432,151.389z M50.293,149.976c0.133-0.1,0.16-0.29,0.059-0.425  c-0.101-0.135-0.29-0.16-0.425-0.059c-0.13,0.098-0.16,0.282-0.066,0.415C49.962,150.046,50.154,150.076,50.293,149.976  L50.293,149.976z M44.282,154.239c0.137-0.101,0.168-0.293,0.068-0.431c-0.099-0.132-0.284-0.164-0.422-0.074  c-0.136,0.103-0.17,0.293-0.077,0.436C43.953,154.306,44.143,154.335,44.282,154.239L44.282,154.239z M36.891,142.372  c0.086-0.146,0.041-0.335-0.103-0.424c-0.141-0.087-0.328-0.044-0.415,0.097c-0.093,0.135-0.059,0.321,0.076,0.413  c0.004,0.003,0.007,0.005,0.012,0.006c0.141,0.094,0.33,0.056,0.424-0.085C36.888,142.378,36.89,142.375,36.891,142.372  L36.891,142.372z"/>

</g>
</g>
</g>

<!-- ITEM 3 -->
<g transform="translate(83.0 102.0) rotate(0.0 120.5 72.0) scale(0.8033333333333333 0.8044692737430168)">
<g transform="translate(-0.0 -0.0)">
<g clip-path="url(#clipPathId-collage-item-3)">
		<defs>
			<clipPath id="clipPathId-collage-item-3">
				<rect x="0.0" y="0.0" width="300.0" height="179.0"/>
			</clipPath>
		</defs>

<g>
	
		<linearGradient id="SVGID_1_-i3" gradientUnits="userSpaceOnUse" x1="-101.75" y1="443.375" x2="210.65" y2="443.375" gradientTransform="matrix(0.5714 0 0 -0.5714 100 342.8571)">
		<stop offset="0" style="stop-color:#FBB03B"/>
		<stop offset="1" style="stop-color:#FFCA28"/>
	</linearGradient>
	<ellipse fill="url(#SVGID_1_-i3)" cx="131.114" cy="89.5" rx="89.257" ry="89.5"/>
	
		<linearGradient id="SVGID_2_-i3" gradientUnits="userSpaceOnUse" x1="-153.85" y1="513.5404" x2="169.45" y2="513.5404" gradientTransform="matrix(0.5714 0 0 -0.5714 100 342.8571)">
		<stop offset="0" style="stop-color:#FBB03B"/>
		<stop offset="1" style="stop-color:#FFFFFF"/>
	</linearGradient>
	<rect x="12.086" y="43.117" opacity="0.62" fill="url(#SVGID_2_-i3)" enable-background="new    " width="184.743" height="12.577"/>
	
		<linearGradient id="SVGID_3_-i3" gradientUnits="userSpaceOnUse" x1="-36.7" y1="358.3694" x2="244.65" y2="358.3694" gradientTransform="matrix(0.5714 0 0 -0.5714 100 342.8571)">
		<stop offset="0" style="stop-color:#FBB03B"/>
		<stop offset="1" style="stop-color:#FFFFFF"/>
	</linearGradient>
	<rect x="79.029" y="135.711" opacity="0.62" fill="url(#SVGID_3_-i3)" enable-background="new    " width="160.771" height="4.727"/>
	
		<linearGradient id="SVGID_4_-i3" gradientUnits="userSpaceOnUse" x1="-369.8963" y1="-2447.7537" x2="-71.1963" y2="-2447.7537" gradientTransform="matrix(-0.5714 0 0 0.5714 21.8307 1522.2946)">
		<stop offset="0" style="stop-color:#FBB03B"/>
		<stop offset="1" style="stop-color:#FFFFFF"/>
	</linearGradient>
	<rect x="62.514" y="112.964" opacity="0.62" fill="url(#SVGID_4_-i3)" enable-background="new    " width="170.686" height="21.229"/>
	
		<linearGradient id="SVGID_5_-i3" gradientUnits="userSpaceOnUse" x1="-82.6" y1="467.8665" x2="75.1" y2="467.8665" gradientTransform="matrix(0.5714 0 0 -0.5714 100 342.8571)">
		<stop offset="0" style="stop-color:#FBB03B"/>
		<stop offset="1" style="stop-color:#FFFFFF"/>
	</linearGradient>
	<rect x="52.8" y="69.216" opacity="0.62" fill="url(#SVGID_5_-i3)" enable-background="new    " width="90.114" height="12.577"/>
	<g>
		<rect x="34.571" y="26.185" fill="#FFB300" width="184.857" height="3.724"/>
	</g>
	<g>
		<rect y="98.095" fill="#FFB300" width="152.571" height="3.724"/>
	</g>
	<g>
		<rect x="115.429" y="110.7" fill="#FFB300" width="184.571" height="3.724"/>
	</g>
</g>

</g>
</g>
</g>

<!-- ITEM 4 -->
<g transform="translate(1261.0 113.0) rotate(0.0 129.0 172.0) scale(0.86 0.86)">
<g transform="translate(-0.0 -0.0)">
<g clip-path="url(#clipPathId-collage-item-4)">
		<defs>
			<clipPath id="clipPathId-collage-item-4">
				<rect x="0.0" y="0.0" width="300.0" height="400.0"/>
			</clipPath>
		</defs>

<path style="fill:#E0EBFE;" d="M258.866,362.453l-5.205-14.201c-1.877-0.091-3.724,0.113-5.516,0.714l5.625,15.354  c0.315,0.861-0.126,1.814-0.987,2.131c-0.861,0.315-1.814-0.126-2.131-0.987l-5.522-15.068c-1.673,1.048-3.11,2.43-4.288,4.066  l4.66,12.713c0.315,0.861-0.126,1.814-0.989,2.131c-0.861,0.315-1.814-0.126-2.131-0.987l-3.66-9.985  c-2.102,5.2-2.224,11.789,0.146,18.259c0.056,0.152,0.113,0.3,0.171,0.449c-1.219,0.702-2.407,1.462-3.549,2.302  c-3.202,2.352-7.331,6.343-8.812,11.999l1.605,0.42c1.357-5.185,5.2-8.888,8.188-11.082c1.03-0.756,2.105-1.449,3.213-2.093  c2.486,5.508,6.463,9.793,10.916,12.16l-3.478-9.488c-0.315-0.861,0.126-1.814,0.987-2.131c0.861-0.315,1.814,0.126,2.131,0.989  l4.48,12.226c1.954,0.483,3.939,0.591,5.877,0.27l-5.206-14.207c-0.315-0.861,0.126-1.814,0.987-2.131  c0.861-0.315,1.814,0.126,2.131,0.989l5.278,14.401c1.701-0.752,3.219-1.88,4.582-3.266l-4.766-13.003  c-0.315-0.861,0.126-1.814,0.987-2.131c0.861-0.315,1.814,0.126,2.131,0.987l4.096,11.176c1.324-1.88,2.478-3.994,3.513-6.183  l-2.571-7.016c-0.315-0.861,0.126-1.814,0.987-2.131c0.861-0.315,1.814,0.126,2.131,0.989l1.369,3.737  c2.53-6.283,4.323-12.285,6.437-14.291c-3.58-0.752-8.677-4.18-14.322-7.225l1.772,4.836c0.315,0.861-0.126,1.814-0.989,2.131  c-0.861,0.315-1.814-0.126-2.131-0.989l-2.987-8.151c-2.187-0.995-4.416-1.829-6.637-2.346l4.586,12.518  c0.315,0.861-0.126,1.814-0.987,2.131C260.136,363.757,259.181,363.315,258.866,362.453z"/>
<path style="fill:none;stroke:#23286B;stroke-linecap:round;stroke-miterlimit:10;" d="M136.137,80.734"/>
<rect x="75.945" y="77.081" style="fill:#D62929;" width="68.186" height="16.134"/>
<rect x="71.747" y="66.164" style="fill:#428DFC;" width="68.186" height="11.097"/>
<rect x="80.629" y="80.465" style="fill:#D6D7D8;" width="64.021" height="9.37"/>
<rect x="80.629" y="87.549" style="fill:#EEEEEE;" width="64.021" height="1.181"/>
<rect x="80.629" y="85.188" style="fill:#EEEEEE;" width="64.021" height="1.181"/>
<rect x="80.629" y="82.827" style="fill:#EEEEEE;" width="64.021" height="1.181"/>
<rect x="80.629" y="80.465" style="fill:#EEEEEE;" width="64.021" height="1.181"/>
<rect x="72.168" y="49.788" style="fill:#D62929;" width="80.437" height="16.134"/>
<rect x="77.693" y="53.171" style="fill:#D6D7D8;" width="75.525" height="9.37"/>
<rect x="77.693" y="60.257" style="fill:#EEEEEE;" width="75.525" height="1.181"/>
<rect x="77.693" y="57.896" style="fill:#EEEEEE;" width="75.525" height="1.181"/>
<rect x="77.693" y="55.533" style="fill:#EEEEEE;" width="75.525" height="1.181"/>
<rect x="77.693" y="53.171" style="fill:#EEEEEE;" width="75.525" height="1.181"/>
<rect x="20.849" y="377.582" style="fill:#D62929;" width="68.186" height="16.134"/>
<rect x="16.651" y="366.665" style="fill:#428DFC;" width="68.186" height="11.097"/>
<rect x="25.533" y="380.964" style="fill:#D6D7D8;" width="64.021" height="9.37"/>
<rect x="25.533" y="388.05" style="fill:#EEEEEE;" width="64.021" height="1.181"/>
<rect x="25.533" y="385.687" style="fill:#EEEEEE;" width="64.021" height="1.181"/>
<rect x="25.533" y="383.326" style="fill:#EEEEEE;" width="64.021" height="1.181"/>
<rect x="25.533" y="380.964" style="fill:#EEEEEE;" width="64.021" height="1.181"/>
<rect x="17.07" y="350.288" style="fill:#D62929;" width="80.437" height="16.134"/>
<rect x="22.596" y="353.672" style="fill:#D6D7D8;" width="75.525" height="9.37"/>
<rect x="22.596" y="360.756" style="fill:#EEEEEE;" width="75.525" height="1.181"/>
<rect x="22.596" y="358.395" style="fill:#EEEEEE;" width="75.525" height="1.181"/>
<rect x="22.596" y="356.033" style="fill:#EEEEEE;" width="75.525" height="1.181"/>
<rect x="22.596" y="353.672" style="fill:#EEEEEE;" width="75.525" height="1.181"/>
<rect x="10.875" y="93.356" style="fill:#D6D7D8;" width="241.404" height="5.039"/>
<rect x="9.352" y="394.961" style="fill:#D6D7D8;" width="241.404" height="5.039"/>
<rect x="21.897" style="fill:#D62929;" width="20.154" height="93.216"/>
<rect x="156.103" y="20.278" transform="matrix(0.9383 -0.3458 0.3458 0.9383 -9.6838 59.7083)" style="fill:#1D72D8;" width="12.791" height="73.433"/>
<rect x="169.644" y="20.279" transform="matrix(0.9383 -0.3458 0.3458 0.9383 -8.8486 64.3912)" style="fill:#428DFC;" width="12.791" height="73.433"/>
<rect x="187.605" y="21.373" transform="matrix(0.8883 -0.4592 0.4592 0.8883 -5.0101 95.5742)" style="fill:#78A9EF;" width="12.789" height="73.43"/>
<rect x="161.599" y="228.986" transform="matrix(-0.9383 -0.3458 0.3458 -0.9383 233.744 573.105)" style="fill:#1D72D8;" width="12.791" height="73.433"/>
<rect x="148.058" y="228.986" transform="matrix(-0.9383 -0.3458 0.3458 -0.9383 207.4984 568.423)" style="fill:#428DFC;" width="12.791" height="73.433"/>
<rect x="206.553" y="117.061" style="fill:#428DFC;" width="13.13" height="80.676"/>
<g>
	<rect x="219.47" y="111.471" style="fill:#23286B;" width="20.415" height="86.265"/>
	<rect x="223.749" y="110.811" style="fill:#D6D7D8;" width="11.852" height="80.998"/>
	<rect x="232.713" y="110.811" style="fill:#EEEEEE;" width="1.494" height="80.998"/>
	<rect x="229.724" y="110.811" style="fill:#EEEEEE;" width="1.494" height="80.998"/>
	<rect x="226.737" y="110.811" style="fill:#EEEEEE;" width="1.494" height="80.998"/>
	<rect x="223.749" y="110.811" style="fill:#EEEEEE;" width="1.494" height="80.998"/>
</g>
<rect x="187.177" y="102.562" style="fill:#D62929;" width="19.091" height="95.173"/>
<rect x="232.253" y="328.003" style="fill:#428DFC;" width="10.763" height="66.134"/>
<rect x="216.37" y="316.12" style="fill:#D62929;" width="15.65" height="78.02"/>
<rect x="45.201" style="fill:#D62929;" width="20.154" height="93.216"/>
<rect x="18.56" y="132.357" style="fill:#A1C3FC;" width="14.459" height="66.871"/>
<rect x="76.89" y="134.58" transform="matrix(0.9652 -0.2616 0.2616 0.9652 -40.7994 27.4025)" style="fill:#78A9EF;" width="11.277" height="64.74"/>
<rect x="78.516" y="171.454" transform="matrix(0.9652 -0.2616 0.2616 0.9652 -42.3115 28.0366)" style="fill:#D6D7D8;" width="11.277" height="2.986"/>
<rect x="18.56" y="174.832" style="fill:#428DFC;" width="14.459" height="4.375"/>
<rect x="18.56" y="183.391" style="fill:#428DFC;" width="14.459" height="4.375"/>
<rect x="36.156" y="132.357" style="fill:#A1C3FC;" width="14.459" height="66.871"/>
<rect x="36.156" y="174.832" style="fill:#428DFC;" width="14.459" height="4.375"/>
<rect x="36.156" y="183.391" style="fill:#428DFC;" width="14.459" height="4.375"/>
<rect x="53.751" y="132.357" style="fill:#A1C3FC;" width="14.459" height="66.871"/>
<rect x="53.751" y="174.832" style="fill:#428DFC;" width="14.459" height="4.375"/>
<rect x="53.751" y="183.391" style="fill:#428DFC;" width="14.459" height="4.375"/>
<rect x="100.248" y="324.932" transform="matrix(0.988 -0.1545 0.1545 0.988 -54.3622 20.9934)" style="fill:#A1C3FC;" width="15.271" height="70.626"/>
<rect x="102.081" y="369.649" transform="matrix(0.988 -0.1545 0.1545 0.988 -56.1499 21.4171)" style="fill:#428DFC;" width="15.271" height="4.62"/>
<rect x="103.479" y="378.581" transform="matrix(0.988 -0.1545 0.1545 0.988 -57.513 21.7404)" style="fill:#428DFC;" width="15.271" height="4.62"/>
<rect x="119.047" y="324.933" transform="matrix(0.988 -0.1545 0.1545 0.988 -54.1365 23.8977)" style="fill:#A1C3FC;" width="15.271" height="70.626"/>
<rect x="120.878" y="369.65" transform="matrix(0.988 -0.1545 0.1545 0.988 -55.9243 24.3213)" style="fill:#428DFC;" width="15.271" height="4.62"/>
<rect x="122.276" y="378.582" transform="matrix(0.988 -0.1545 0.1545 0.988 -57.2875 24.6445)" style="fill:#428DFC;" width="15.271" height="4.62"/>
<rect x="137.844" y="324.934" transform="matrix(0.988 -0.1545 0.1545 0.988 -53.9109 26.8019)" style="fill:#A1C3FC;" width="15.271" height="70.626"/>
<rect x="139.676" y="369.65" transform="matrix(0.988 -0.1545 0.1545 0.988 -55.6987 27.2256)" style="fill:#428DFC;" width="15.271" height="4.62"/>
<rect x="141.073" y="378.582" transform="matrix(0.988 -0.1545 0.1545 0.988 -57.0619 27.5487)" style="fill:#428DFC;" width="15.271" height="4.62"/>
<rect x="100.232" y="132.357" style="fill:#A1C3FC;" width="14.459" height="66.871"/>
<rect x="100.232" y="174.832" style="fill:#428DFC;" width="14.459" height="4.375"/>
<rect x="100.232" y="183.391" style="fill:#428DFC;" width="14.459" height="4.375"/>
<rect x="117.829" y="132.357" style="fill:#A1C3FC;" width="14.459" height="66.871"/>
<rect x="117.829" y="174.832" style="fill:#428DFC;" width="14.459" height="4.375"/>
<rect x="117.829" y="183.391" style="fill:#428DFC;" width="14.459" height="4.375"/>
<rect x="135.424" y="132.357" style="fill:#A1C3FC;" width="14.459" height="66.871"/>
<rect x="135.424" y="174.832" style="fill:#428DFC;" width="14.459" height="4.375"/>
<rect x="135.424" y="183.391" style="fill:#428DFC;" width="14.459" height="4.375"/>
<rect x="87.917" y="244.632" style="fill:#A1C3FC;" width="12.608" height="58.309"/>
<rect x="87.917" y="274.575" style="fill:#428DFC;" width="12.608" height="7.63"/>
<rect x="87.917" y="289.13" style="fill:#428DFC;" width="12.608" height="3.814"/>
<rect x="103.259" y="244.632" style="fill:#A1C3FC;" width="12.608" height="58.309"/>
<rect x="103.259" y="274.575" style="fill:#428DFC;" width="12.608" height="7.63"/>
<rect x="103.259" y="289.13" style="fill:#428DFC;" width="12.608" height="3.814"/>
<rect x="118.603" y="244.632" style="fill:#A1C3FC;" width="12.608" height="58.309"/>
<rect x="118.603" y="274.575" style="fill:#428DFC;" width="12.608" height="7.63"/>
<rect x="118.603" y="289.13" style="fill:#428DFC;" width="12.608" height="3.814"/>
<rect x="21.897" y="25.109" style="fill:#E94A47;" width="20.154" height="42.997"/>
<rect x="45.201" y="25.109" style="fill:#E94A47;" width="20.154" height="42.997"/>
<rect x="16.712" y="237.502" style="fill:#23286B;" width="14.072" height="65.081"/>
<rect x="33.006" y="237.184" transform="matrix(0.9984 -0.0573 0.0573 0.9984 -15.3889 2.7375)" style="fill:#D62929;" width="14.074" height="65.087"/>
<rect x="16.712" y="255.033" style="fill:#1D72D8;" width="14.072" height="30.02"/>
<rect x="70.565" y="237.502" style="fill:#D62929;" width="14.072" height="65.081"/>
<rect x="70.565" y="255.033" style="fill:#E94A47;" width="14.072" height="30.02"/>
<rect x="33.006" y="254.717" transform="matrix(0.9984 -0.0573 0.0573 0.9984 -15.389 2.7375)" style="fill:#E94A47;" width="14.074" height="30.023"/>
<rect x="49.842" y="236.796" transform="matrix(0.9906 -0.1368 0.1368 0.9906 -36.3105 10.313)" style="fill:#D62929;" width="14.072" height="65.081"/>
<rect x="49.842" y="254.327" transform="matrix(0.9906 -0.1368 0.1368 0.9906 -36.3106 10.313)" style="fill:#E94A47;" width="14.072" height="30.02"/>
<linearGradient id="SVGID_1_-i4" gradientUnits="userSpaceOnUse" x1="12.4912" y1="647.3708" x2="82.9441" y2="647.3708" gradientTransform="matrix(0.2134 0 0 0.2134 213.0549 128.9843)">
	<stop offset="0" style="stop-color:#81AEF2"/>
	<stop offset="1" style="stop-color:#78A9EF"/>
</linearGradient>
<rect x="215.721" y="232.385" style="fill:url(#SVGID_1_-i4);" width="15.038" height="69.55"/>
<linearGradient id="SVGID_2_-i4" gradientUnits="userSpaceOnUse" x1="81.8094" y1="647.3708" x2="152.2624" y2="647.3708" gradientTransform="matrix(0.2134 0 0 0.2134 213.0549 128.9843)">
	<stop offset="0" style="stop-color:#81AEF2"/>
	<stop offset="1" style="stop-color:#78A9EF"/>
</linearGradient>
<rect x="230.516" y="232.385" style="fill:url(#SVGID_2_-i4);" width="15.038" height="69.55"/>
<linearGradient id="SVGID_3_-i4" gradientUnits="userSpaceOnUse" x1="12.4912" y1="647.3707" x2="82.9441" y2="647.3707" gradientTransform="matrix(0.2134 0 0 0.2134 213.0549 128.9843)">
	<stop offset="0" style="stop-color:#A1C3FC"/>
	<stop offset="1" style="stop-color:#78A9EF"/>
</linearGradient>
<rect x="215.721" y="251.12" style="fill:url(#SVGID_3_-i4);" width="15.038" height="32.081"/>
<linearGradient id="SVGID_4_-i4" gradientUnits="userSpaceOnUse" x1="81.8094" y1="647.3707" x2="152.2624" y2="647.3707" gradientTransform="matrix(0.2134 0 0 0.2134 213.0549 128.9843)">
	<stop offset="0" style="stop-color:#A1C3FC"/>
	<stop offset="1" style="stop-color:#78A9EF"/>
</linearGradient>
<rect x="230.516" y="251.12" style="fill:url(#SVGID_4_-i4);" width="15.038" height="32.081"/>
<linearGradient id="SVGID_5_-i4" gradientUnits="userSpaceOnUse" x1="-124.1682" y1="647.3708" x2="-53.7152" y2="647.3708" gradientTransform="matrix(0.2134 0 0 0.2134 213.0549 128.9843)">
	<stop offset="0" style="stop-color:#81AEF2"/>
	<stop offset="1" style="stop-color:#78A9EF"/>
</linearGradient>
<rect x="186.552" y="232.385" style="fill:url(#SVGID_5_-i4);" width="15.038" height="69.55"/>
<linearGradient id="SVGID_6_-i4" gradientUnits="userSpaceOnUse" x1="-54.8502" y1="647.3708" x2="15.6028" y2="647.3708" gradientTransform="matrix(0.2134 0 0 0.2134 213.0549 128.9843)">
	<stop offset="0" style="stop-color:#81AEF2"/>
	<stop offset="1" style="stop-color:#78A9EF"/>
</linearGradient>
<rect x="201.348" y="232.385" style="fill:url(#SVGID_6_-i4);" width="15.038" height="69.55"/>
<linearGradient id="SVGID_7_-i4" gradientUnits="userSpaceOnUse" x1="-124.1682" y1="647.3707" x2="-53.7152" y2="647.3707" gradientTransform="matrix(0.2134 0 0 0.2134 213.0549 128.9843)">
	<stop offset="0" style="stop-color:#A1C3FC"/>
	<stop offset="1" style="stop-color:#78A9EF"/>
</linearGradient>
<rect x="186.552" y="251.12" style="fill:url(#SVGID_7_-i4);" width="15.038" height="32.081"/>
<linearGradient id="SVGID_8_-i4" gradientUnits="userSpaceOnUse" x1="-54.8502" y1="647.3707" x2="15.6028" y2="647.3707" gradientTransform="matrix(0.2134 0 0 0.2134 213.0549 128.9843)">
	<stop offset="0" style="stop-color:#A1C3FC"/>
	<stop offset="1" style="stop-color:#78A9EF"/>
</linearGradient>
<rect x="201.348" y="251.12" style="fill:url(#SVGID_8_-i4);" width="15.038" height="32.081"/>
<rect x="10.875" y="197.716" style="fill:#D6D7D8;" width="241.404" height="5.039"/>
<rect x="155.105" y="280.009" transform="matrix(-0.9383 -0.3458 0.3458 -0.9383 215.0643 605.0087)" style="fill:#D6D7D8;" width="12.791" height="6.623"/>
<linearGradient id="SVGID_9_-i4" gradientUnits="userSpaceOnUse" x1="-302.7126" y1="560.0397" x2="-186.8351" y2="560.0397" gradientTransform="matrix(0.2134 0 0 0.2134 213.0549 128.9843)">
	<stop offset="0" style="stop-color:#A1C3FC"/>
	<stop offset="1" style="stop-color:#78A9EF"/>
</linearGradient>
<polygon style="fill:url(#SVGID_9_-i4);" points="148.443,263.577 160.445,268.002 173.176,233.462 161.176,229.039 "/>
<rect x="10.875" y="302.074" style="fill:#D6D7D8;" width="241.404" height="5.039"/>
<g>
	<g>
		<path style="fill:#A1C3FC;" d="M213.698,394.798c-0.069,0-0.139-0.009-0.209-0.03c-0.405-0.114-0.64-0.536-0.524-0.94    c5.036-17.699,11.418-35.248,18.971-52.156c0.171-0.384,0.621-0.559,1.005-0.384c0.384,0.171,0.556,0.621,0.384,1.005    c-7.522,16.843-13.878,34.321-18.896,51.951C214.335,394.579,214.03,394.798,213.698,394.798z"/>
	</g>
	
		<ellipse transform="matrix(-0.4038 0.9149 -0.9149 -0.4038 639.3636 264.0688)" style="fill:#1C2868;" cx="233.634" cy="340.374" rx="3.525" ry="9.425"/>
	<g>
		<path style="fill:#A1C3FC;" d="M233.554,340.698c-0.105,0-0.213-0.023-0.314-0.069c-0.384-0.174-0.553-0.625-0.379-1.007    c4.311-9.505,9.062-18.955,14.122-28.089c0.206-0.369,0.667-0.498,1.036-0.297c0.367,0.204,0.501,0.667,0.297,1.036    c-5.04,9.098-9.773,18.512-14.067,27.979C234.12,340.532,233.842,340.698,233.554,340.698z"/>
	</g>
	
		<ellipse transform="matrix(-0.3128 0.9498 -0.9498 -0.3128 620.996 170.3694)" style="fill:#1C2868;" cx="248.867" cy="309.831" rx="4.247" ry="11.356"/>
	<g>
		<path style="fill:#A1C3FC;" d="M248.991,310.259c-0.128,0-0.256-0.032-0.373-0.097c-0.367-0.207-0.497-0.67-0.289-1.037    c4.245-7.536,8.786-15.007,13.496-22.206c0.23-0.353,0.705-0.452,1.053-0.221c0.352,0.228,0.451,0.702,0.221,1.053    c-4.692,7.173-9.214,14.616-13.443,22.119C249.515,310.119,249.256,310.259,248.991,310.259z"/>
	</g>
	
		<ellipse transform="matrix(-0.5895 0.8078 -0.8078 -0.5895 651.1489 239.9136)" style="fill:#1C2868;" cx="264.612" cy="285.414" rx="4.247" ry="11.356"/>
	<g>
		<path style="fill:#A1C3FC;" d="M264.433,285.111c-0.146,0-0.292-0.041-0.422-0.128c-0.349-0.233-0.445-0.707-0.212-1.056    c3.644-5.459,7.473-10.896,11.388-16.159c0.254-0.34,0.733-0.405,1.065-0.158c0.338,0.251,0.41,0.73,0.158,1.065    c-3.9,5.243-7.714,10.66-11.342,16.096C264.919,284.992,264.679,285.111,264.433,285.111z"/>
	</g>
	
		<ellipse transform="matrix(-0.5895 0.8078 -0.8078 -0.5895 656.1732 197.5242)" style="fill:#1C2868;" cx="277.896" cy="265.496" rx="5.694" ry="15.227"/>
	<g>
		<path style="fill:#A1C3FC;" d="M278.481,265.419c-0.161,0-0.324-0.05-0.462-0.157c-0.335-0.254-0.401-0.731-0.145-1.066    c2.655-3.488,5.401-6.969,8.16-10.347c0.27-0.326,0.748-0.372,1.072-0.108c0.326,0.267,0.373,0.746,0.108,1.072    c-2.749,3.365-5.485,6.832-8.131,10.306C278.936,265.315,278.709,265.419,278.481,265.419z"/>
	</g>
</g>

</g>
</g>
</g>

<!-- ITEM 5 -->
<g transform="translate(613.0 428.0) rotate(0.0 173.0 173.0) scale(3.46 3.46)">
<g transform="translate(-0.0 -0.0)">
<g clip-path="url(#clipPathId-collage-item-5)">
		<defs>
			<clipPath id="clipPathId-collage-item-5">
				<rect x="0.0" y="0.0" width="100.0" height="100.0"/>
			</clipPath>
		</defs>

<path fill="#E94A47" d="M71.074,7.041c-8.311,0-15.798,3.511-21.074,9.123c-5.276-5.613-12.763-9.123-21.074-9.123  C12.95,7.041,0,19.991,0,35.967c0,24.843,34.617,51.782,50,56.992c16.639-5.973,50-33.42,50-56.992  C100,19.991,87.05,7.041,71.074,7.041z"/>

</g>
</g>
</g>

              </svg>